<svg xmlns="http://www.w3.org/2000/svg" xmlns:xlink="http://www.w3.org/1999/xlink" xml:space="preserve" width="100.0px" height="100px" version="1.0" shape-rendering="geometricPrecision" text-rendering="geometricPrecision" image-rendering="optimizeQuality" fill-rule="evenodd" clip-rule="evenodd" viewBox="0 0 50000 50000">
 <g id="Layer_x0020_1">
  <metadata id="CorelCorpID_0Corel-Layer"/>
  <path fill="black" d="M38134 10151c0,-2195 -1780,-3976 -3976,-3976 -2195,0 -3976,1781 -3976,3976 0,2196 1781,3976 3976,3976 2196,0 3976,-1780 3976,-3976zm5653 4974l-1618 15518 -5618 0c1314,0 2437,-774 2967,-1883 189,-397 303,-837 318,-1303l0 -7760c0,-2340 -1897,-4249 -4237,-4249l-629 11 -4 -1 -5 0c-83,-3 -167,2 -251,2 -440,0 -1334,-53 -2524,835l-2527 1886 -4403 0 1741 -3016 -793 -457 -2005 3473 -493 0c-1040,0 -1883,843 -1883,1883 0,1040 843,1883 1883,1883l6634 0 2649 -1602 0 4219c0,1295 -1173,1664 -1173,1664l-4004 1122 0 -4241 -3767 0 -16921 0 -3766 0c0,6905 0,13811 0,20716l3766 0c0,-983 1,2806 1,-16947l16919 0 0 1775 -5045 6479 3 4c-1752,2462 1591,4643 3322,2204l4 3 1717 -2434 0 8916 3766 0 0 -11775 1883 -288 0 1706 0 10357 2825 0 0 -10357 9416 0 0 10357 2825 0 0 -10357 0 -418 1882 -17925 -2855 0z"/>
 </g>
</svg>